<svg xmlns="http://www.w3.org/2000/svg" viewBox="0 0 100 100">
  <defs>
    <linearGradient id="p1" x1="0" y1="0" x2="1" y2="1">
      <stop offset="0%" stop-color="#f5c0d8"/>
      <stop offset="100%" stop-color="#e8a0c0"/>
    </linearGradient>
    <linearGradient id="p2" x1="0" y1="0" x2="1" y2="1">
      <stop offset="0%" stop-color="#f0b8d0"/>
      <stop offset="100%" stop-color="#e098b8"/>
    </linearGradient>
    <radialGradient id="ctr" cx="50%" cy="50%" r="50%">
      <stop offset="0%" stop-color="#ffe8a0"/>
      <stop offset="100%" stop-color="#e0c070"/>
    </radialGradient>
  </defs>

  <!-- Petals -->
  <path d="M50 42 Q42 22 36 12 Q42 8 50 10 Q58 8 64 12 Q58 22 50 42Z" fill="url(#p1)" opacity="0.9"/>
  <path d="M50 42 Q65 30 76 24 Q80 30 78 38 Q74 46 60 48 Q54 48 50 42Z" fill="url(#p2)" opacity="0.85"/>
  <path d="M50 42 Q60 52 66 64 Q64 70 58 70 Q52 68 48 58 Q46 50 50 42Z" fill="url(#p1)" opacity="0.9"/>
  <path d="M50 42 Q40 52 34 64 Q36 70 42 70 Q48 68 52 58 Q54 50 50 42Z" fill="url(#p2)" opacity="0.85"/>
  <path d="M50 42 Q35 30 24 24 Q20 30 22 38 Q26 46 40 48 Q46 48 50 42Z" fill="url(#p1)" opacity="0.9"/>

  <!-- Center -->
  <circle cx="50" cy="43" r="7" fill="url(#ctr)"/>

  <!-- Stamens -->
  <line x1="50" y1="43" x2="47" y2="37" stroke="#d0a850" stroke-width="1" stroke-linecap="round" opacity="0.7"/>
  <circle cx="47" cy="36.5" r="1.5" fill="#e0b860" opacity="0.8"/>
  <line x1="50" y1="43" x2="54" y2="38" stroke="#d0a850" stroke-width="1" stroke-linecap="round" opacity="0.7"/>
  <circle cx="54" cy="37.5" r="1.5" fill="#e0b860" opacity="0.8"/>
  <line x1="50" y1="43" x2="50" y2="36" stroke="#d0a850" stroke-width="1" stroke-linecap="round" opacity="0.7"/>
  <circle cx="50" cy="35.5" r="1.5" fill="#e0b860" opacity="0.8"/>

  <!-- Stem -->
  <path d="M50 55 Q49 68 48 82" stroke="#7aaa7a" stroke-width="2.5" fill="none" stroke-linecap="round"/>

  <!-- Leaves -->
  <path d="M48 72 Q38 65 32 70 Q38 62 48 68" fill="#7aaa7a" opacity="0.8"/>
  <path d="M49 64 Q58 57 64 62 Q57 58 49 61" fill="#7aaa7a" opacity="0.7"/>
</svg>
